HIERARCHY
ROOT Hips
{
  OFFSET -4.35178 90.3298 111.633
  CHANNELS 6 Xposition Yposition Zposition Zrotation Xrotation Yrotation
  JOINT LeftUpLeg
  {
    OFFSET 0.103456 1.85784 10.5485
    CHANNELS 6 Xposition Yposition Zposition Zrotation Xrotation Yrotation
    JOINT LeftLeg
    {
      OFFSET 43.5 -4.2e-05 0
      CHANNELS 6 Xposition Yposition Zposition Zrotation Xrotation Yrotation
      JOINT LeftFoot
      {
        OFFSET 42.3722 1.9e-05 0
        CHANNELS 6 Xposition Yposition Zposition Zrotation Xrotation Yrotation
        JOINT LeftToe
        {
          OFFSET 17.3 0 0
          CHANNELS 6 Xposition Yposition Zposition Zrotation Xrotation Yrotation
          End Site
          {
            OFFSET 0 0 0
          }
        }
      }
    }
  }
  JOINT RightUpLeg
  {
    OFFSET 0.103456 1.85782 -10.5485
    CHANNELS 6 Xposition Yposition Zposition Zrotation Xrotation Yrotation
    JOINT RightLeg
    {
      OFFSET 43.5 -2.7e-05 0
      CHANNELS 6 Xposition Yposition Zposition Zrotation Xrotation Yrotation
      JOINT RightFoot
      {
        OFFSET 42.3723 0 0
        CHANNELS 6 Xposition Yposition Zposition Zrotation Xrotation Yrotation
        JOINT RightToe
        {
          OFFSET 17.3 0 1.7e-05
          CHANNELS 6 Xposition Yposition Zposition Zrotation Xrotation Yrotation
          End Site
          {
            OFFSET 0 0 0
          }
        }
      }
    }
  }
  JOINT Spine
  {
    OFFSET 6.90197 -2.60373 0
    CHANNELS 6 Xposition Yposition Zposition Zrotation Xrotation Yrotation
    JOINT Spine1
    {
      OFFSET 12.5881 0 0
      CHANNELS 6 Xposition Yposition Zposition Zrotation Xrotation Yrotation
      JOINT Spine2
      {
        OFFSET 12.3432 -1.8e-05 0
        CHANNELS 6 Xposition Yposition Zposition Zrotation Xrotation Yrotation
        JOINT Neck
        {
          OFFSET 25.8329 2.3e-05 0
          CHANNELS 6 Xposition Yposition Zposition Zrotation Xrotation Yrotation
          JOINT Head
          {
            OFFSET 11.7666 0 0
            CHANNELS 6 Xposition Yposition Zposition Zrotation Xrotation Yrotation
            End Site
            {
              OFFSET 0 0 0
            }
          }
        }
        JOINT LeftShoulder
        {
          OFFSET 19.7459 -1.48035 6.0001
          CHANNELS 6 Xposition Yposition Zposition Zrotation Xrotation Yrotation
          JOINT LeftArm
          {
            OFFSET 11.2841 1.8e-05 -2e-05
            CHANNELS 6 Xposition Yposition Zposition Zrotation Xrotation Yrotation
            JOINT LeftForeArm
            {
              OFFSET 33 -1.3e-05 1.9e-05
              CHANNELS 6 Xposition Yposition Zposition Zrotation Xrotation Yrotation
              JOINT LeftHand
              {
                OFFSET 25.2 3.2e-05 1.1e-05
                CHANNELS 6 Xposition Yposition Zposition Zrotation Xrotation Yrotation
                End Site
                {
                  OFFSET 0 0 0
                }
              }
            }
          }
        }
        JOINT RightShoulder
        {
          OFFSET 19.7461 -1.48036 -6.00008
          CHANNELS 6 Xposition Yposition Zposition Zrotation Xrotation Yrotation
          JOINT RightArm
          {
            OFFSET 11.2841 0 0
            CHANNELS 6 Xposition Yposition Zposition Zrotation Xrotation Yrotation
            JOINT RightForeArm
            {
              OFFSET 33.0001 1.6e-05 0
              CHANNELS 6 Xposition Yposition Zposition Zrotation Xrotation Yrotation
              JOINT RightHand
              {
                OFFSET 25.1998 0.000123 0.000432
                CHANNELS 6 Xposition Yposition Zposition Zrotation Xrotation Yrotation
                End Site
                {
                  OFFSET 0 0 0
                }
              }
            }
          }
        }
      }
    }
  }
}
MOTION
Frames:	11
Frame Time:	0.0333333
-2.80574 89.0664 178.396 73.5723 -68.5115 -10.052 0.103456 1.85784 10.5485 -3.3701 3.64548 175.183 43.5 -4.2e-05 1e-05 -26.6149 2.81547 6.25847 42.3722 1.9e-05 0 80.1356 3.83097 -10.1115 17.3 -1.42109e-14 3e-06 21.4546 -1e-06 0.003093 0.103456 1.85782 -10.5485 13.9245 -9.57185 173.235 43.5 -2.7e-05 4e-06 -7.83279 19.9036 2.91253 42.3723 0 1e-05 87.1611 17.8026 -11.8728 17.3 -6e-06 1.7e-05 21.4546 -1.9e-05 -0.003116 6.90197 -2.60373 -3e-06 7.29033 -3.69161 -0.206105 12.5881 1e-05 8e-06 4.67277 -7.33385 0.140693 12.3432 -1.8e-05 -5e-06 4.49269 -7.24174 0.614306 25.8329 2.3e-05 7e-06 3.64415 -0.0476099 -2.4162 11.7666 -8e-06 -6e-06 -29.534 -7.68542 11.6034 19.7459 -1.48035 6.0001 176.087 -6.97595 -105.098 11.2841 1.8e-05 -2e-05 0.41216 -30.1721 32.2096 33 -1.3e-05 1.9e-05 -13.1097 8.52467 -17.6722 25.2 3.2e-05 1.1e-05 -0.432659 29.581 3.07922 19.7461 -1.48036 -6.00008 -169.825 -5.29988 79.2495 11.2841 0 -1e-06 26.1888 1.77953 -1.56621 33.0001 1.6e-05 -1e-06 -40.2385 10.4153 22.8273 25.1998 0.000123 0.000432 19.5004 -10.1626 6.532 
-2.79834 89.0631 178.392 73.5407 -68.4293 -10.0737 0.103456 1.85784 10.5485 -3.3375 3.59999 175.146 43.5 -4.2e-05 1e-05 -26.6185 2.87964 6.35169 42.3722 1.9e-05 0 80.086 3.69649 -10.161 17.3 0 3e-06 21.4546 -1e-06 0.003093 0.103456 1.85782 -10.5485 13.8191 -10.0552 173.197 43.5 -2.7e-05 4e-06 -8.03413 19.8711 2.94672 42.3723 0 1e-05 87.0784 17.6846 -11.5503 17.3 -6e-06 1.7e-05 21.4546 -1.9e-05 -0.003116 6.90197 -2.60373 -3e-06 7.2947 -3.7101 -0.211859 12.5881 1e-05 8e-06 4.68192 -7.37142 0.132156 12.3432 -1.8e-05 -5e-06 4.50274 -7.27964 0.608262 25.8329 2.3e-05 7e-06 3.64356 -0.0617785 -2.4162 11.7666 -8e-06 -6e-06 -29.4828 -7.68542 11.6034 19.7459 -1.48035 6.0001 176.113 -6.95909 -105.064 11.2841 1.8e-05 -2e-05 0.459533 -30.1181 32.2164 33 -1.3e-05 1.9e-05 -13.2267 8.51218 -17.6486 25.2 3.2e-05 1.1e-05 -0.46719 29.5641 3.10056 19.7461 -1.48036 -6.00008 -169.858 -5.28248 79.2722 11.2841 -2.84217e-14 -1e-06 26.0777 1.76124 -1.6059 33.0001 1.6e-05 -1e-06 -40.2575 10.3453 22.8721 25.1998 0.000123 0.000432 19.4236 -10.1885 6.56233 
-2.79748 89.0663 178.392 73.5652 -68.4357 -10.0549 0.103456 1.85784 10.5485 -3.33672 3.60464 175.157 43.5 -4.2e-05 1e-05 -26.6023 2.89865 6.34715 42.3722 1.9e-05 0 80.0399 3.6691 -10.1693 17.3 1.42109e-14 3e-06 21.4546 -1e-06 0.003093 0.103456 1.85782 -10.5485 13.7815 -10.1444 173.172 43.5 -2.7e-05 4e-06 -8.10421 19.911 2.98909 42.3723 0 1e-05 87.18 17.3508 -11.5387 17.3 -6e-06 1.7e-05 21.4546 -1.9e-05 -0.003116 6.90197 -2.60373 -3e-06 7.29885 -3.71332 -0.217396 12.5881 1e-05 8e-06 4.69003 -7.37841 0.121858 12.3432 -1.8e-05 -5e-06 4.51107 -7.28714 0.598441 25.8329 2.3e-05 7e-06 3.64373 -0.0576903 -2.41755 11.7666 -8e-06 -6e-06 -29.4087 -7.69387 11.6022 19.7459 -1.48035 6.0001 176.136 -6.92506 -105.02 11.2841 1.8e-05 -2e-05 0.554377 -30.1121 32.3079 33 -1.3e-05 1.9e-05 -13.38 8.5688 -17.6249 25.2 3.2e-05 1.1e-05 -0.567108 29.5421 3.16684 19.7461 -1.48036 -6.00008 -169.897 -5.30741 79.2948 11.2841 0 -1e-06 25.9522 1.80123 -1.70696 33.0001 1.6e-05 -1e-06 -40.3024 10.2627 22.9135 25.1998 0.000123 0.000432 19.3061 -10.2056 6.58235 
-2.79795 89.0724 178.389 73.5777 -68.4329 -10.0487 0.103456 1.85784 10.5485 -3.33703 3.61355 175.185 43.5 -4.2e-05 1e-05 -26.5592 2.92166 6.33457 42.3722 1.9e-05 -1.42109e-14 79.9934 3.63905 -10.1858 17.3 0 3e-06 21.4546 -1e-06 0.003093 0.103456 1.85782 -10.5485 13.7344 -10.2218 173.122 43.5 -2.7e-05 4e-06 -8.19277 19.9129 3.12191 42.3723 0 1e-05 87.1176 17.2033 -11.499 17.3 -6e-06 1.7e-05 21.4546 -1.9e-05 -0.003116 6.90197 -2.60373 -3e-06 7.30967 -3.71961 -0.227198 12.5881 1e-05 8e-06 4.71141 -7.39215 0.1039 12.3432 -1.8e-05 -5e-06 4.53284 -7.30161 0.581442 25.8329 2.3e-05 7e-06 3.63786 -0.0230208 -2.42837 11.7666 -8e-06 -6e-06 -29.3036 -7.66473 11.6283 19.7459 -1.48035 6.0001 176.19 -6.87354 -104.909 11.2841 1.8e-05 -2e-05 0.626685 -30.0552 32.4068 33 -1.3e-05 1.9e-05 -13.7716 8.73667 -17.5471 25.2 3.2e-05 1.1e-05 -0.750042 29.5507 3.27643 19.7461 -1.48036 -6.00008 -169.947 -5.3099 79.3025 11.2841 0 -1e-06 25.7803 1.86446 -1.9214 33.0001 1.6e-05 -1e-06 -40.4219 10.0985 22.9813 25.1998 0.000123 0.000432 19.1205 -10.2427 6.61093 
-2.79127 89.082 178.384 73.5808 -68.4262 -10.06 0.103456 1.85784 10.5485 -3.32509 3.62286 175.223 43.5 -4.2e-05 1e-05 -26.4908 2.95583 6.30934 42.3722 1.9e-05 1.42109e-14 79.9487 3.6073 -10.2294 17.3 0 3e-06 21.4546 -1e-06 0.003093 0.103456 1.85782 -10.5485 13.6595 -10.396 173.032 43.5 -2.7e-05 4e-06 -8.35045 19.8959 3.35318 42.3723 2.84217e-14 1e-05 87.0196 17.0403 -11.3795 17.3 -6e-06 1.7e-05 21.4546 -1.9e-05 -0.003116 6.90197 -2.60373 -3e-06 7.3379 -3.71689 -0.234838 12.5881 1e-05 8e-06 4.76761 -7.39332 0.0905914 12.3432 -1.8e-05 -5e-06 4.58912 -7.30275 0.568325 25.8329 2.3e-05 7e-06 3.581 0.0404714 -2.42556 11.7666 -8e-06 -6e-06 -29.1362 -7.62317 11.6793 19.7459 -1.48035 6.0001 176.228 -6.87001 -104.693 11.2841 1.8e-05 -2e-05 0.618645 -29.9924 32.5554 33 -1.3e-05 1.9e-05 -14.513 9.19204 -17.4124 25.2 3.2e-05 1.1e-05 -1.22538 29.6153 3.4962 19.7461 -1.48036 -6.00008 -169.9 -5.29137 79.1327 11.2841 -2.84217e-14 -1e-06 25.5967 1.70624 -2.08196 33.0001 1.6e-05 -1e-06 -40.8171 9.7635 23.0512 25.1998 0.000123 0.000432 18.9266 -10.3562 6.73282 
-2.76349 89.0988 178.421 73.5342 -68.4557 -10.1109 0.103456 1.85784 10.5485 -3.26245 3.61973 175.243 43.5 -4.2e-05 1e-05 -26.3521 3.00251 6.28987 42.3722 1.9e-05 1.42109e-14 79.873 3.49859 -10.2678 17.3 0 3e-06 21.4546 -1e-06 0.003093 0.103456 1.85782 -10.5485 13.4516 -10.6869 172.822 43.5 -2.7e-05 4e-06 -8.79412 19.8622 3.74183 42.3723 -2.84217e-14 1e-05 86.9736 16.7438 -11.1718 17.3 -6e-06 1.7e-05 21.4546 -1.9e-05 -0.003116 6.90197 -2.60373 -3e-06 7.37607 -3.71464 -0.260204 12.5881 1e-05 8e-06 4.84251 -7.38539 0.0416272 12.3432 -1.8e-05 -5e-06 4.66408 -7.29674 0.519097 25.8329 2.3e-05 7e-06 3.49501 0.168943 -2.47059 11.7666 -8e-06 -6e-06 -28.827 -7.5447 11.8193 19.7459 -1.48035 6.0001 176.373 -6.79254 -104.343 11.2841 1.8e-05 -2e-05 0.53127 -29.6905 32.6328 33 -1.3e-05 1.9e-05 -15.6968 9.50145 -17.1429 25.2 3.2e-05 1.1e-05 -1.61562 29.5905 3.76443 19.7461 -1.48036 -6.00008 -169.944 -5.26173 79.0115 11.2841 0 -1e-06 25.1411 1.63671 -2.55674 33.0001 1.6e-05 -1e-06 -40.9659 9.29138 23.196 25.1998 0.000123 0.000432 18.5157 -10.519 6.86578 
-2.74113 89.1312 178.468 73.4624 -68.4949 -10.1785 0.103456 1.85784 10.5485 -3.1722 3.64172 175.287 43.5 -4.2e-05 1e-05 -26.1151 3.06453 6.24971 42.3722 1.9e-05 0 79.7541 3.41539 -10.3194 17.3 0 3e-06 21.4546 -1e-06 0.003093 0.103456 1.85782 -10.5485 13.1263 -10.8818 172.491 43.5 -2.7e-05 4e-06 -9.5303 19.8801 4.39571 42.3723 -2.84217e-14 1e-05 87.0278 16.1329 -11.1142 17.3 -6e-06 1.7e-05 21.4546 -1.9e-05 -0.003116 6.90197 -2.60373 -3e-06 7.44648 -3.72285 -0.286251 12.5881 1e-05 8e-06 4.98255 -7.40391 -0.00444869 12.3432 -1.8e-05 -5e-06 4.80475 -7.31595 0.474568 25.8329 2.3e-05 7e-06 3.30768 0.2788 -2.52055 11.7666 -8e-06 -6e-06 -28.4266 -7.50502 11.9699 19.7459 -1.48035 6.0001 176.661 -6.70602 -103.807 11.2841 1.8e-05 -2e-05 0.218086 -28.987 32.6716 33 -1.3e-05 1.9e-05 -17.157 9.72052 -16.7647 25.2 3.2e-05 1.1e-05 -2.00303 29.6423 3.85552 19.7461 -1.48036 -6.00008 -169.992 -5.25705 78.8078 11.2841 0 -1e-06 24.5247 1.53409 -3.19418 33.0001 1.6e-05 -1e-06 -41.427 8.88077 23.2907 25.1998 0.000123 0.000432 18.2097 -10.6389 7.16229 
-2.68144 89.1883 178.559 73.3143 -68.5579 -10.2888 0.103456 1.85784 10.5485 -3.01942 3.73411 175.314 43.5 -4.2e-05 1e-05 -25.745 3.17052 6.23199 42.3722 1.9e-05 0 79.5043 3.3689 -10.395 17.3 0 3e-06 21.4546 -1e-06 0.003093 0.103456 1.85782 -10.5485 12.0883 -11.3427 171.788 43.5 -2.7e-05 4e-06 -11.6957 19.7377 5.51903 42.3723 0 1e-05 87.1591 15.5291 -10.8427 17.3 -6e-06 1.7e-05 21.4546 -1.9e-05 -0.003116 6.90197 -2.60373 -3e-06 7.54865 -3.7414 -0.335028 12.5881 1e-05 8e-06 5.18533 -7.44565 -0.0922499 12.3432 -1.8e-05 -5e-06 5.00888 -7.35994 0.389979 25.8329 2.3e-05 7e-06 3.07315 0.379642 -2.59238 11.7666 -8e-06 -6e-06 -27.9463 -7.48654 12.1354 19.7459 -1.48035 6.0001 177.061 -6.5946 -103.033 11.2841 1.8e-05 -2e-05 -0.46191 -27.8769 32.6092 33 -1.3e-05 1.9e-05 -18.7946 10.2815 -16.3004 25.2 3.2e-05 1.1e-05 -2.65628 29.8747 3.95193 19.7461 -1.48036 -6.00008 -170.111 -5.29822 78.5518 11.2841 -2.84217e-14 -1e-06 23.5856 1.64469 -4.41368 33.0001 1.6e-05 -1e-06 -41.9844 8.15951 23.5475 25.1998 0.000123 0.000432 17.666 -10.8378 7.49356 
-2.56803 89.2761 178.704 73.1337 -68.7642 -10.4423 0.103456 1.85784 10.5485 -2.8863 3.75742 175.302 43.5 -4.2e-05 1e-05 -25.2987 3.27673 6.32466 42.3722 1.9e-05 0 79.1418 3.15775 -10.4152 17.3 0 3e-06 21.4546 -1e-06 0.003093 0.103456 1.85782 -10.5485 9.58373 -11.6802 170.632 43.5 -2.7e-05 4e-06 -16.6109 19.2942 6.92861 42.3723 -2.84217e-14 1e-05 87.9829 14.9233 -10.5679 17.3 -6e-06 1.7e-05 21.4546 -1.9e-05 -0.003116 6.90197 -2.60373 -3e-06 7.66909 -3.75183 -0.408145 12.5881 1e-05 8e-06 5.423 -7.47463 -0.228679 12.3432 -1.8e-05 -5e-06 5.24782 -7.39371 0.256112 25.8329 2.3e-05 7e-06 2.8094 0.550899 -2.73146 11.7666 -8e-06 -6e-06 -27.4691 -7.40547 12.3564 19.7459 -1.48035 6.0001 177.604 -6.4748 -101.95 11.2841 1.8e-05 -2e-05 -1.52471 -26.2495 32.4544 33 -1.3e-05 1.9e-05 -20.8229 11.3336 -15.7652 25.2 3.2e-05 1.1e-05 -3.78265 30.462 3.89317 19.7461 -1.48036 -6.00008 -170.455 -5.30462 78.1833 11.2841 0 -1e-06 22.1786 1.82129 -5.94597 33.0001 1.6e-05 -1e-06 -42.4894 7.27141 23.7669 25.1998 0.000123 0.000432 16.7398 -11.0495 7.59931 
-2.37784 89.354 178.935 72.8779 -68.9426 -10.5184 0.103456 1.85784 10.5485 -2.66655 3.89453 175.191 43.5 -4.2e-05 1e-05 -24.6285 3.38478 6.37565 42.3722 1.9e-05 0 78.7105 2.97303 -10.4538 17.3 0 3e-06 21.4546 -1e-06 0.003093 0.103456 1.85782 -10.5485 6.54363 -12.0221 168.888 43.5 -2.7e-05 4e-06 -22.5691 18.4337 8.87166 42.3723 -2.84217e-14 1e-05 88.5218 14.3496 -10.279 17.3 -6e-06 1.7e-05 21.4546 -1.9e-05 -0.003116 6.90197 -2.60373 -3e-06 7.83631 -3.74269 -0.677146 12.5881 1e-05 8e-06 5.74191 -7.49347 -0.756633 12.3432 -1.8e-05 -5e-06 5.56919 -7.4403 -0.268914 25.8329 2.3e-05 7e-06 2.75905 1.08752 -3.45622 11.7666 -8e-06 -6e-06 -27.0677 -7.19215 13.3656 19.7459 -1.48035 6.0001 178.514 -5.5509 -100.637 11.2841 1.8e-05 -2e-05 -2.64561 -23.3409 30.8223 33 -1.3e-05 1.9e-05 -24.1838 10.3489 -14.4019 25.2 3.2e-05 1.1e-05 -4.28679 30.358 3.7413 19.7461 -1.48036 -6.00008 -171.388 -5.04475 78.9723 11.2841 -2.84217e-14 -1e-06 19.3895 4.28208 -11.0652 33.0001 1.6e-05 -1e-06 -40.3586 5.32577 24.5196 25.1998 0.000123 0.000432 15.1361 -11.3599 6.70939 
-2.09162 89.4021 179.26 72.8917 -69.179 -10.4771 0.103456 1.85784 10.5485 -2.82142 4.19694 175.265 43.5 -4.2e-05 1e-05 -24.3216 3.4737 6.46779 42.3722 1.9e-05 -1.42109e-14 78.4519 2.92661 -10.5211 17.3 0 3e-06 21.4546 -1e-06 0.003093 0.103456 1.85782 -10.5485 3.5347 -12.4861 165.991 43.5 -2.7e-05 4e-06 -28.6999 16.6638 13.0801 42.3723 0 1e-05 88.3171 13.0753 -9.63039 17.3 -6e-06 1.7e-05 21.4546 -1.9e-05 -0.003116 6.90197 -2.60373 -3e-06 8.01229 -3.79195 -0.750141 12.5881 1e-05 8e-06 6.09212 -7.60004 -0.882758 12.3432 -1.8e-05 -5e-06 5.92235 -7.54912 -0.387374 25.8329 2.3e-05 7e-06 2.56033 1.37315 -3.81104 11.7666 -8e-06 -6e-06 -26.9085 -6.98383 13.643 19.7459 -1.48035 6.0001 178.947 -5.22911 -99.8649 11.2841 1.8e-05 -2e-05 -2.8358 -22.1923 32.1535 33 -1.3e-05 1.9e-05 -26.7632 10.4839 -13.3599 25.2 3.2e-05 1.1e-05 -5.9314 30.1596 4.11747 19.7461 -1.48036 -6.00008 -171.455 -5.00934 78.1384 11.2841 0 -1e-06 16.9735 3.66982 -12.6456 33.0001 1.6e-05 -1e-06 -40.6906 3.61201 24.4642 25.1998 0.000123 0.000432 13.9333 -11.9243 6.71561 
